<svg xmlns="http://www.w3.org/2000/svg" viewBox="0 0 18.448 22.958">
  <defs>
    <style>
      .cls-1 {
        fill: #4D4F5C;
      }
    </style>
  </defs>
  <g id="iconTelefono" transform="translate(0.021 -0.037)">
    <path id="Path_2454" data-name="Path 2454" class="cls-1" d="M5.45,1.1c.663.853.948,1.327,1.516,2.18a2.111,2.111,0,0,1-.474,2.938L4.882,7.36C2.891,8.781,9.81,18.638,11.9,17.217l1.611-1.137a2.111,2.111,0,0,1,2.938.474c.569.853.948,1.327,1.516,2.18.663.948.663,2.654-.284,3.317C9.621,27.737-5.923,6.128,2.323.346A2.42,2.42,0,0,1,5.45,1.1Z" transform="translate(0 0)"/>
  </g>
</svg>
