<svg xmlns="http://www.w3.org/2000/svg" viewBox="0 0 36 23">
  <defs>
    <style>
      .cls-1 {
        fill: #9e968d;
      }
    </style>
  </defs>
  <g id="iconTicket" transform="translate(-37 -713)">
    <path id="Path_2286" data-name="Path 2286" class="cls-1" d="M15.65,15.3a.957.957,0,0,1-.95-.958V7.058a.95.95,0,1,1,1.9,0v7.235A.969.969,0,0,1,15.65,15.3Z" transform="translate(29.282 709.823)"/>
    <path id="Path_2287" data-name="Path 2287" class="cls-1" d="M27.024,15.046H.95A.957.957,0,0,1,0,14.088V10.3a.957.957,0,0,1,.95-.958A1.821,1.821,0,0,0,.95,5.7.957.957,0,0,1,0,4.744V.958A.957.957,0,0,1,.95,0H27.024a.957.957,0,0,1,.95.958V14.088A.957.957,0,0,1,27.024,15.046ZM1.9,13.129H26.074V1.917H1.9V3.929a3.722,3.722,0,0,1,0,7.188Z" transform="translate(37 713)"/>
    <path id="Path_2288" data-name="Path 2288" class="cls-1" d="M35.224,23.546H9.15a.958.958,0,0,1,0-1.917H34.274V9.458a.95.95,0,1,1,1.9,0V22.588A.957.957,0,0,1,35.224,23.546Z" transform="translate(32.694 708.573)"/>
    <path id="Path_2289" data-name="Path 2289" class="cls-1" d="M43.924,31.646H17.85a.958.958,0,0,1,0-1.917H42.974V17.558a.95.95,0,1,1,1.9,0V30.688A.957.957,0,0,1,43.924,31.646Z" transform="translate(28.126 704.354)"/>
  </g>
</svg>
