<svg xmlns="http://www.w3.org/2000/svg" viewBox="0 0 22.213 21">
  <defs>
    <style>
      .cls-1 {
        fill: #a4afb7;
      }
    </style>
  </defs>
  <path id="iconAgregarInvitado" class="cls-1" d="M18.574,10.487a3.583,3.583,0,0,0-2.669,1.186,16.939,16.939,0,0,0-1.591-.728,9.784,9.784,0,0,0,1.375-4.852,6.119,6.119,0,0,0-12.239.027,9.654,9.654,0,0,0,1.456,4.906,13.293,13.293,0,0,0-3.451,1.968A4.332,4.332,0,0,0,0,16.175v3.99A.84.84,0,0,0,.836,21H18.6a.84.84,0,0,0,.836-.836V17.6a3.611,3.611,0,0,0,2.777-3.5A3.653,3.653,0,0,0,18.574,10.487Zm-9-8.842a4.481,4.481,0,0,1,4.475,4.475c0,2.588-1.7,6.227-4.475,6.227A4.111,4.111,0,0,1,6.389,10.3,7.927,7.927,0,0,1,5.095,6.119,4.516,4.516,0,0,1,9.57,1.644Zm8.2,17.684H1.644V16.175a2.457,2.457,0,0,1,.863-1.887,12.018,12.018,0,0,1,3.5-1.914A4.981,4.981,0,0,0,9.6,13.964,5.085,5.085,0,0,0,13.29,12.32a11.3,11.3,0,0,1,1.86.782,3.669,3.669,0,0,0-.135.97,3.611,3.611,0,0,0,2.777,3.5l-.027,1.752Zm2.669-4.5H19.3v1.132a.728.728,0,0,1-1.456,0V14.827H16.714a.728.728,0,0,1,0-1.456h1.132V12.239a.728.728,0,1,1,1.456,0v1.132h1.132a.728.728,0,0,1,0,1.456Z"/>
</svg>
