<svg xmlns="http://www.w3.org/2000/svg" viewBox="0 0 36.003 36">
  <defs>
    <style>
      .cls-1 {
        fill: #9e968d;
      }
    </style>
  </defs>
  <g id="iconLlamada" transform="translate(-6380 -3079)">
    <path id="iconLlamada-2" data-name="iconLlamada" class="cls-1" d="M17.133,36A16.792,16.792,0,0,1,6.37,32.1l-.188-.187a15.817,15.817,0,0,1-2.1-2.1l-.15-.187A16.578,16.578,0,0,1,0,18.525a6.39,6.39,0,0,1,3.75-5.7l.337-.187a2.941,2.941,0,0,1,1.238-.263,3.147,3.147,0,0,1,2.438,1.2l2.55,3.337a2.921,2.921,0,0,1-.225,3.863L8.808,22.05a6.281,6.281,0,0,0,1.35,2.625l.075.075a6.8,6.8,0,0,0,.9.9l.15.112a7.208,7.208,0,0,0,2.625,1.313L15.183,25.8a3.057,3.057,0,0,1,2.062-.825,2.715,2.715,0,0,1,1.763.6l3.337,2.55a2.972,2.972,0,0,1,.9,3.637l-.187.375a6.3,6.3,0,0,1-5.663,3.75h-.262ZM5.433,14.775c-.113,0-.225,0-.262.037L4.758,15a4.029,4.029,0,0,0-2.4,3.562,14.3,14.3,0,0,0,3.375,9.563l.112.113c.6.712,1.312,1.35,1.837,1.875l.188.188A14.19,14.19,0,0,0,17.1,33.675h.3a4.015,4.015,0,0,0,3.563-2.363l.187-.375a.74.74,0,0,0-.187-.825l-3.337-2.55a.6.6,0,0,0-.337-.113.786.786,0,0,0-.413.15l-1.725,1.725a1.188,1.188,0,0,1-.862.338H14.1a9.255,9.255,0,0,1-4.35-1.988l-.113-.113A11.339,11.339,0,0,1,8.47,26.4v-.15A9.313,9.313,0,0,1,6.445,21.9a1.2,1.2,0,0,1,.338-1.013l1.725-1.725a.57.57,0,0,0,.038-.75L6,15.075A.771.771,0,0,0,5.433,14.775Zm18.9,8.625a11.391,11.391,0,0,1-5.513-1.425l-2.962.862a2.915,2.915,0,0,1-.6.075,2.188,2.188,0,0,1-1.537-.638,2.211,2.211,0,0,1-.525-2.138l.862-2.963A11.626,11.626,0,0,1,24.333,0h0A11.594,11.594,0,0,1,32.62,3.412a11.817,11.817,0,0,1,0,16.538A11.415,11.415,0,0,1,24.333,23.4Zm-5.4-3.825a1.133,1.133,0,0,1,.6.188,9.428,9.428,0,0,0,4.8,1.313,9.346,9.346,0,0,0,9.337-9.337A9.346,9.346,0,0,0,24.3,2.4a9.521,9.521,0,0,0-6.638,2.7,9.311,9.311,0,0,0-1.425,11.4,1.159,1.159,0,0,1,.15.938l-.9,3.112,3.075-.9A.742.742,0,0,1,18.933,19.575Zm8.925-6.713a1.162,1.162,0,1,1,0-2.325,1.162,1.162,0,0,1,0,2.325Zm-3.525,0a1.162,1.162,0,1,1,0-2.325A1.168,1.168,0,0,1,25.5,11.7,1.145,1.145,0,0,1,24.333,12.863Zm-3.563,0a1.162,1.162,0,0,1,0-2.325A1.168,1.168,0,0,1,21.933,11.7,1.122,1.122,0,0,1,20.77,12.863Z" transform="translate(6380.008 3079)"/>
  </g>
</svg>
