<svg xmlns="http://www.w3.org/2000/svg" viewBox="0 0 19.115 29">
  <defs>
    <style>
      .cls-1 {
        fill: #9e968d;
        stroke: #9e968d;
      }
    </style>
  </defs>
  <g id="iconFAQ" transform="translate(-6032.305 -3065.5)">
    <path id="iconFAQ-2" data-name="iconFAQ" class="cls-1" d="M6.123,28V23.856h3.995V28Zm1.12-9.221-.672-5.413a11.21,11.21,0,0,0,5.637-1.493,4.591,4.591,0,0,0,2.2-3.995A4.524,4.524,0,0,0,12.88,4.368,6.016,6.016,0,0,0,8.848,3.061a9.144,9.144,0,0,0-4.032.933A11.333,11.333,0,0,0,2.053,6.011L0,3.808A14.286,14.286,0,0,1,3.547,1.195,11.587,11.587,0,0,1,8.96,0a11.867,11.867,0,0,1,3.733.56,7.763,7.763,0,0,1,2.8,1.531,7.339,7.339,0,0,1,1.792,2.427,8.075,8.075,0,0,1,.635,3.211,7.234,7.234,0,0,1-.6,3.136,6.849,6.849,0,0,1-1.605,2.2,8.313,8.313,0,0,1-2.427,1.493,14.067,14.067,0,0,1-3.1.859l-.6.112-.411,3.285H7.243Z" transform="translate(6033 3066)"/>
  </g>
</svg>
