<svg xmlns="http://www.w3.org/2000/svg" xmlns:xlink="http://www.w3.org/1999/xlink" viewBox="0 0 77.896 78.152"><defs><style>.a{fill:url(#a);}.b{fill:url(#b);}</style><linearGradient id="a" x1="0.5" x2="0.5" y2="1" gradientUnits="objectBoundingBox"><stop offset="0" stop-color="#087590"/><stop offset="1" stop-color="#21a8c1"/></linearGradient><linearGradient id="b" x1="-0.171" y1="0.326" x2="1.333" y2="0.261" gradientUnits="objectBoundingBox"><stop offset="0" stop-color="#21a8c1"/><stop offset="1" stop-color="#e81f76"/></linearGradient></defs><g transform="translate(-644.386 -779.848)"><g transform="translate(644.386 831.427) rotate(-60)"><path class="a" d="M52.947,26.777v-.136C52.947,12.1,41.984,0,26.407,0,10.9,0,0,11.961,0,26.437v.136C0,41.049,10.964,53.146,26.541,53.146,42.117,53.214,52.947,41.253,52.947,26.777Zm-43.588,0v-.136c0-9.99,7.153-18.282,17.181-18.282s17.047,8.155,17.047,18.146v.136c0,9.99-7.153,18.282-17.181,18.282S9.359,36.767,9.359,26.777Z" transform="translate(0 0)"/></g><g transform="translate(673.021 811.005) rotate(-60)"><path class="b" d="M35.976,18.194V18.1A17.749,17.749,0,0,0,17.943,0,17.614,17.614,0,0,0,0,17.963v.092A17.738,17.738,0,0,0,18.034,36.111,17.521,17.521,0,0,0,35.976,18.194Zm-29.617,0V18.1c0-6.788,4.86-12.422,11.674-12.422s11.583,5.541,11.583,12.33V18.1c0,6.788-4.86,12.422-11.674,12.422S6.359,24.982,6.359,18.194Z" transform="translate(0 0)"/></g></g></svg>