<svg xmlns="http://www.w3.org/2000/svg" viewBox="0 0 22.484 18.5">
  <defs>
    <style>
      .cls-1 {
        fill: #4c4650;
        stroke: #4c4650;
        stroke-width: 0.5px;
      }
    </style>
  </defs>
  <path id="iconGaleria" class="cls-1" d="M19.512,3H16.656l-.312-1.1A2.543,2.543,0,0,0,13.9,0H8.04A2.543,2.543,0,0,0,5.592,1.9L5.352,3H2.5A2.479,2.479,0,0,0,0,5.5V15.5A2.479,2.479,0,0,0,2.5,18H19.488a2.479,2.479,0,0,0,2.5-2.5V5.5A2.444,2.444,0,0,0,19.512,3ZM21,15.5a1.491,1.491,0,0,1-1.512,1.512H2.5A1.491,1.491,0,0,1,.984,15.5V5.5A1.491,1.491,0,0,1,2.5,3.984H5.76a.491.491,0,0,0,.5-.408l.36-1.512A1.428,1.428,0,0,1,8.04.96h5.9a1.443,1.443,0,0,1,1.44,1.152l.36,1.512a.544.544,0,0,0,.5.408h3.24A1.491,1.491,0,0,1,21,5.544ZM10.992,4.992a5,5,0,1,0,4.992,5.016A5.024,5.024,0,0,0,10.992,4.992Zm0,9A4,4,0,1,1,15,10.008,4.015,4.015,0,0,1,10.992,13.992ZM4.008,6A1.008,1.008,0,1,1,3,4.992,1.014,1.014,0,0,1,4.008,6Z" transform="translate(0.25 0.25)"/>
</svg>
