<svg xmlns="http://www.w3.org/2000/svg" viewBox="0 0 27.5 19.5">
  <defs>
    <style>
      .cls-1 {
        fill: none;
        stroke: #4c4650;
        stroke-miterlimit: 10;
        stroke-width: 1.5px;
      }
    </style>
  </defs>
  <path id="iconVideos" class="cls-1" d="M23.1,1.5H5.9A4.387,4.387,0,0,0,1.5,5.9v9.2a4.387,4.387,0,0,0,4.4,4.4H23.1a4.387,4.387,0,0,0,4.4-4.4V5.9A4.387,4.387,0,0,0,23.1,1.5Zm-3.52,9.16-7.8,4a.265.265,0,0,1-.28-.08c0-.04-.04-.04-.04-.08v-8a.189.189,0,0,1,.2-.2c.04,0,.08,0,.08.04l7.8,4a.229.229,0,0,1,.08.28c.04,0,0,.04-.04.04Z" transform="translate(-0.75 -0.75)"/>
</svg>
