<svg xmlns="http://www.w3.org/2000/svg" viewBox="0 0 22 18.4">
  <defs>
    <style>
      .cls-1 {
        fill: none;
      }

      .cls-2 {
        fill: #4c4650;
        stroke: #4c4650;
        stroke-width: 0.4px;
      }
    </style>
  </defs>
  <g id="iconWebsite" transform="translate(0.2 0.2)">
    <path id="Path_2266" data-name="Path 2266" class="cls-1" d="M4,28.8a.481.481,0,0,0,.48.48H23.2a.481.481,0,0,0,.48-.48V16.1H4ZM11.7,17.8l5.928,5.5-2.664-.072,1.344,3.048a.84.84,0,0,1-.432,1.08.849.849,0,0,1-1.08-.432L13.48,23.9l-1.824,1.992Z" transform="translate(-3.04 -12.236)"/>
    <g id="Group_3945" data-name="Group 3945">
      <path id="Path_2267" data-name="Path 2267" class="cls-2" d="M39.044,32.32a.849.849,0,0,0,1.08.432.84.84,0,0,0,.432-1.08l-1.344-3.048,2.664.072-5.928-5.5L35.9,31.288,37.724,29.3Z" transform="translate(-27.284 -17.632)"/>
      <path id="Path_2268" data-name="Path 2268" class="cls-2" d="M20.16,0H1.44A1.444,1.444,0,0,0,0,1.44V16.56A1.444,1.444,0,0,0,1.44,18H20.16a1.444,1.444,0,0,0,1.44-1.44V1.44A1.444,1.444,0,0,0,20.16,0Zm.48,16.56a.481.481,0,0,1-.48.48H1.44a.481.481,0,0,1-.48-.48V3.864H20.64Zm0-13.656H.96V1.44A.481.481,0,0,1,1.44.96H20.16a.481.481,0,0,1,.48.48Z"/>
      <path id="Path_2269" data-name="Path 2269" class="cls-2" d="M12.9,6.2a.4.4,0,1,0,.4.4A.389.389,0,0,0,12.9,6.2Z" transform="translate(-7.394 -4.606)"/>
      <path id="Path_2270" data-name="Path 2270" class="cls-2" d="M7.1,6.2a.389.389,0,0,0-.4.4.4.4,0,0,0,.4.4.4.4,0,0,0,0-.8Z" transform="translate(-3.694 -4.606)"/>
      <path id="Path_2271" data-name="Path 2271" class="cls-2" d="M18.7,6.2a.4.4,0,1,0,.4.4A.389.389,0,0,0,18.7,6.2Z" transform="translate(-11.095 -4.606)"/>
    </g>
  </g>
</svg>
