<svg xmlns="http://www.w3.org/2000/svg" viewBox="0 0 8.7 12.087">
  <defs>
    <style>
      .cls-1 {
        fill: #9e968d;
      }
    </style>
  </defs>
  <g id="iconPinMap" transform="translate(-140.408 -219.957)">
    <g id="Group_3935" data-name="Group 3935" transform="translate(140.408 219.957)">
      <path id="Path_2253" data-name="Path 2253" class="cls-1" d="M4.35.664A3.684,3.684,0,0,1,8.036,4.35c0,1.384-1.926,4.461-3.686,6.84C2.59,8.81.664,5.744.664,4.35A3.684,3.684,0,0,1,4.35.664M4.35,0A4.351,4.351,0,0,0,0,4.35c0,2.059,3.2,6.42,4.106,7.615a.309.309,0,0,0,.244.122.326.326,0,0,0,.244-.122C5.512,10.758,8.7,6.409,8.7,4.35A4.351,4.351,0,0,0,4.35,0Z"/>
    </g>
    <g id="Group_3936" data-name="Group 3936" transform="translate(142.843 221.871)">
      <path id="Path_2254" data-name="Path 2254" class="cls-1" d="M23.915,17.964a1.251,1.251,0,1,1-1.251,1.262,1.249,1.249,0,0,1,1.251-1.262m0-.664a1.92,1.92,0,1,0,1.915,1.926A1.915,1.915,0,0,0,23.915,17.3Z" transform="translate(-22 -17.3)"/>
    </g>
  </g>
</svg>
