<svg id="iconCalendarStar" xmlns="http://www.w3.org/2000/svg" viewBox="0 0 34.703 36">
  <defs>
    <style>
      .cls-1 {
        fill: #a4afb7;
      }
    </style>
  </defs>
  <path id="Path_2393" data-name="Path 2393" class="cls-1" d="M31.4,3.9H28.627V1.518A1.686,1.686,0,0,0,26.761,0H24.2a1.494,1.494,0,0,0-1.648,1.518V3.9H12.145V1.518A1.494,1.494,0,0,0,10.5,0H7.937A1.686,1.686,0,0,0,6.072,1.518V3.9H3.3A3.2,3.2,0,0,0,0,7.027V32.313A3.53,3.53,0,0,0,3.3,36H31.4a3.53,3.53,0,0,0,3.3-3.687V7.243a3.2,3.2,0,0,0-3.08-3.34ZM24.2,1.735h2.689V6.506H24.2Zm-16.265,0H10.41V6.506H7.937ZM3.3,5.639H6.072v.954A1.785,1.785,0,0,0,7.937,8.241H10.5A1.629,1.629,0,0,0,12.145,6.68V5.639h10.41v.954a1.629,1.629,0,0,0,1.561,1.648h2.646a1.785,1.785,0,0,0,1.865-1.648V5.639H31.4a1.465,1.465,0,0,1,1.561,1.388v5.118H1.735v-4.9a1.467,1.467,0,0,1,1.345-1.6ZM31.4,34.265H3.3a1.8,1.8,0,0,1-1.561-1.952V13.88H32.964V32.313A1.8,1.8,0,0,1,31.4,34.265Z"/>
  <g id="Group_4099" data-name="Group 4099" transform="translate(9.119 16.128)">
    <g id="Group_4098" data-name="Group 4098">
      <path id="Path_2394" data-name="Path 2394" class="cls-1" d="M33.114,52.112l-.39-.087-3.9-2.039-3.9,2.039a.893.893,0,0,1-1.171-.347.827.827,0,0,1-.087-.564l.781-4.337-3.166-3.036a1.014,1.014,0,0,1-.217-.911.914.914,0,0,1,.694-.564l4.337-.651,1.952-3.947a.869.869,0,0,1,1.171-.39.851.851,0,0,1,.39.39l1.952,3.947,4.337.651a.914.914,0,0,1,.694.564,1.014,1.014,0,0,1-.217.911L33.2,46.777l.781,4.337a.869.869,0,0,1-.347.824A.757.757,0,0,1,33.114,52.112Zm-4.294-3.99.39.087,2.733,1.475-.52-3.08a.874.874,0,0,1,.26-.781L33.9,43.7l-3.08-.434a.768.768,0,0,1-.607-.477L28.82,40.011l-1.388,2.776a.768.768,0,0,1-.607.477l-3.08.434,2.212,2.125a.874.874,0,0,1,.26.781l-.52,3.08,2.733-1.475Z" transform="translate(-21.023 -37.185)"/>
    </g>
  </g>
</svg>
